<?xml version="1.0" encoding="UTF-8" standalone="no"?>
<!-- Created with Inkscape (http://www.inkscape.org/) -->

<svg
   width="1331.7179mm"
   height="845.73547mm"
   viewBox="0 0 1331.7179 845.73547"
   version="1.1"
   id="svg1"
   xml:space="preserve"
   xmlns:inkscape="http://www.inkscape.org/namespaces/inkscape"
   xmlns:sodipodi="http://sodipodi.sourceforge.net/DTD/sodipodi-0.dtd"
   xmlns:xlink="http://www.w3.org/1999/xlink"
   xmlns="http://www.w3.org/2000/svg"
   xmlns:svg="http://www.w3.org/2000/svg"><sodipodi:namedview
     id="namedview1"
     pagecolor="#505050"
     bordercolor="#eeeeee"
     borderopacity="1"
     inkscape:showpageshadow="0"
     inkscape:pageopacity="0"
     inkscape:pagecheckerboard="0"
     inkscape:deskcolor="#505050"
     inkscape:document-units="mm" /><defs
     id="defs1"><style
       id="style1">.cls-1{fill:url(#Gradiente_sem_nome_3);}.cls-2{fill:url(#Gradiente_sem_nome_3-2);}.cls-3{fill:url(#Gradiente_sem_nome_3-3);}.cls-4{fill:url(#Gradiente_sem_nome_3-4);}.cls-5{fill:url(#Gradiente_sem_nome_3-5);}.cls-6{fill:url(#Gradiente_sem_nome_3-6);}.cls-7{fill:none;}.cls-8{fill:#1fb8f1;}.cls-10,.cls-26,.cls-40,.cls-41,.cls-69,.cls-9{fill-rule:evenodd;}.cls-9{fill:url(#Gradiente_sem_nome_61);}.cls-10{fill:url(#Gradiente_sem_nome_62);}.cls-11{mask:url(#mask);}.cls-12{fill:#0c93a1;}.cls-13{mask:url(#mask-2);}.cls-14{mask:url(#mask-3);}.cls-15{fill:url(#Gradiente_sem_nome_61-2);}.cls-16{fill:url(#Gradiente_sem_nome_103);}.cls-17{fill:url(#Gradiente_sem_nome_63);}.cls-18{font-size:5.68px;fill:#231f20;}.cls-18,.cls-51{font-family:PIGARNOSNEUE, PIGARNOS NEUE;}.cls-19{letter-spacing:-0.04em;}.cls-20{letter-spacing:0em;}.cls-21{letter-spacing:-0.02em;}.cls-22{letter-spacing:-0.04em;}.cls-23{letter-spacing:-0.13em;}.cls-24,.cls-26{fill:#063;}.cls-25{fill:#39a935;}.cls-27{clip-path:url(#clip-path);}.cls-28{fill:#f9d552;}.cls-29{fill:#d4d4d5;}.cls-30{fill:#2496d3;}.cls-31{fill:#009d49;}.cls-32{fill:#fdeb1b;}.cls-33{fill:#e21318;}.cls-34{fill:#fdfdfd;}.cls-35{fill:#222f58;}.cls-36{fill:#09a64a;}.cls-37{fill:#f3e600;}.cls-38{fill:#06a344;}.cls-39{fill:#203057;}.cls-40{fill:url(#Gradiente_sem_nome_48);}.cls-41{fill:url(#Gradiente_sem_nome_57);}.cls-42{mask:url(#mask-4);}.cls-43{fill:url(#Gradiente_sem_nome_45);}.cls-44{mask:url(#mask-5);}.cls-45{fill:url(#Gradiente_sem_nome_45-2);}.cls-46{mask:url(#mask-6);}.cls-47{fill:url(#Gradiente_sem_nome_45-3);}.cls-48,.cls-51,.cls-69{fill:#fff;}.cls-49{fill:#cccbcb;}.cls-50{fill:url(#Gradiente_sem_nome_45-4);}.cls-51{font-size:5.82px;}.cls-52{letter-spacing:-0.04em;}.cls-53{letter-spacing:-0.02em;}.cls-54{letter-spacing:0em;}.cls-55{letter-spacing:-0.04em;}.cls-56{letter-spacing:0em;}.cls-57{letter-spacing:-0.13em;}.cls-58{letter-spacing:-0.04em;}.cls-59{clip-path:url(#clip-path-2);}.cls-60{fill:#f8d451;}.cls-61{fill:#d3d3d5;}.cls-62{fill:#2595d2;}.cls-63{fill:#009c49;}.cls-64{fill:#fbea26;}.cls-65{fill:#e1131b;}.cls-66{fill:#f0e413;}.cls-67{fill:#10a243;}.cls-68{fill:#d9d9d9;}</style><linearGradient
       id="Gradiente_sem_nome_61"
       x1="107.33"
       y1="93.989998"
       x2="195.33"
       y2="93.989998"
       gradientUnits="userSpaceOnUse"><stop
         offset="0"
         stop-color="#25e189"
         id="stop3" /><stop
         offset="1"
         stop-color="#2bb9d8"
         id="stop4" /></linearGradient><linearGradient
       id="Gradiente_sem_nome_61-2"
       x1="88.389999"
       y1="189.97"
       x2="228.28999"
       y2="189.97"
       xlink:href="#Gradiente_sem_nome_61"
       gradientTransform="matrix(9.5188516,0,0,9.5188516,2331.2459,-6922.3318)" /><linearGradient
       id="Gradiente_sem_nome_103"
       x1="151.35001"
       y1="191"
       x2="228.2"
       y2="191"
       gradientUnits="userSpaceOnUse"
       gradientTransform="matrix(9.5188516,0,0,9.5188516,2331.2459,-6922.3318)"><stop
         offset="0"
         stop-color="#25e189"
         id="stop8" /><stop
         offset="1"
         stop-color="#2bbbd5"
         id="stop9" /></linearGradient><linearGradient
       id="Gradiente_sem_nome_63"
       x1="127.43"
       y1="166.96001"
       x2="151.53999"
       y2="166.96001"
       gradientUnits="userSpaceOnUse"
       gradientTransform="matrix(9.5188516,0,0,9.5188516,2331.2459,-6922.3318)"><stop
         offset="0"
         stop-color="#479ba4"
         stop-opacity="0"
         id="stop10" /><stop
         offset="1"
         stop-color="#0c93a1"
         id="stop11" /></linearGradient></defs><g
     inkscape:label="Camada 1"
     inkscape:groupmode="layer"
     id="layer1"
     transform="translate(-3172.6124,5429.015)"><path
       class="cls-15"
       d="m 4504.3046,-4891.7702 v 77.3882 a 14.468655,14.468655 0 0 1 -4.5691,10.7563 15.610916,15.610916 0 0 1 -10.7565,4.4736 h -536.2918 a 172.57677,172.57677 0 0 1 -126.4105,-52.544 l -2.3796,-2.4747 a 172.29121,172.29121 0 0 1 -50.2596,-123.745 v -240.5414 a 101.75652,101.75652 0 0 0 -1.7133,-19.0379 95.854837,95.854837 0 0 0 -6.3778,-20.846 106.42076,106.42076 0 0 0 -21.6078,-32.8401 93.951067,93.951067 0 0 0 -19.0376,-15.3254 114.98773,114.98773 0 0 0 -13.2313,-6.7585 102.8036,102.8036 0 0 0 -40.5503,-8.091 h -365.3333 a 14.468655,14.468655 0 0 0 -10.7566,4.5692 14.278277,14.278277 0 0 0 -4.4738,10.661 v 383.705 a 14.563843,14.563843 0 0 0 4.4738,10.8514 14.75422,14.75422 0 0 0 10.7566,4.4739 h 365.2382 a 99.186433,99.186433 0 0 0 59.5879,-19.0378 216.93463,216.93463 0 0 0 53.3057,100.3286 204.17937,204.17937 0 0 1 -102.042,26.2721 h -493.9333 a 15.42054,15.42054 0 0 1 -15.3253,-15.2299 v -598.8312 a 14.278277,14.278277 0 0 1 4.569,-10.8514 14.659032,14.659032 0 0 1 10.7563,-4.5691 h 493.9333 a 220.74218,220.74218 0 0 1 45.5001,4.6642 193.23269,193.23269 0 0 1 44.5482,14.9446 212.08002,212.08002 0 0 1 57.1128,41.3117 201.51409,201.51409 0 0 1 60.8256,127.9335 v 250.1553 a 83.48033,83.48033 0 0 0 71.8675,82.2432 h 2.9509 a 78.625716,78.625716 0 0 0 9.5186,0.5708 h 514.018 3.1414 1.1422 a 15.325351,15.325351 0 0 1 7.4246,3.998 14.849408,14.849408 0 0 1 4.3788,11.4228 z"
       id="path23-4"
       style="fill:url(#Gradiente_sem_nome_61-2);stroke-width:9.51884"
       inkscape:export-filename="lupa_iuri_branco.svg"
       inkscape:export-xdpi="96"
       inkscape:export-ydpi="96" /><path
       class="cls-16"
       d="m 4498.9741,-4902.717 a 15.325351,15.325351 0 0 0 -6.6632,-3.9028 h -1.1424 a 17.514687,17.514687 0 0 0 -3.9028,0 h -514.018 a 75.579682,75.579682 0 0 1 -8.091,0 h -2.9509 a 83.48033,83.48033 0 0 1 -71.8672,-82.2427 v -251.2978 a 201.51409,201.51409 0 0 0 -60.8254,-127.9335 212.08002,212.08002 0 0 0 -57.1132,-41.3117 v 431.0136 a 171.33933,171.33933 0 0 0 50.3549,123.745 l 2.2842,2.4751 a 172.57677,172.57677 0 0 0 126.6008,52.7345 h 537.8153 a 15.801294,15.801294 0 0 0 9.5189,-4.5692 14.373465,14.373465 0 0 0 4.4737,-10.7561 v -77.1982 a 14.373465,14.373465 0 0 0 -4.4737,-10.7562 z"
       id="path24-4"
       style="fill:url(#Gradiente_sem_nome_103);stroke-width:9.51884" /><path
       class="cls-17"
       d="m 3673.404,-5320.9754 h -129.1709 v -108.0389 h 139.5464 a 220.74218,220.74218 0 0 1 45.5,4.6642 192.47118,192.47118 0 0 1 44.4532,14.9446 v 171.9104 a 90.619468,90.619468 0 0 0 -6.2824,-20.846 105.37369,105.37369 0 0 0 -21.6079,-32.8401 93.951067,93.951067 0 0 0 -19.0376,-15.3254 105.56406,105.56406 0 0 0 -53.7816,-14.8495 z"
       id="path25-9"
       style="fill:url(#Gradiente_sem_nome_63);stroke-width:9.51884" /><path
       class="cls-12"
       d="m 3467.9872,-4712.0543 -6.5681,8.7572 h -5.9969 l 4.0931,-8.7572 z"
       id="path26-9"
       style="stroke-width:9.51884" /><path
       class="cls-12"
       d="m 4249.1043,-4712.0543 -6.4731,8.7572 h -6.0919 l 4.0931,-8.7572 z"
       id="path27-3"
       style="stroke-width:9.51884" /><path
       class="cls-12"
       d="m 3229.8255,-4687.7812 a 17.419499,17.419499 0 0 0 -9.5187,-10.2804 27.414292,27.414292 0 0 0 -10.8516,-1.9038 h -36.8379 v 50.6402 h 36.933 a 26.747973,26.747973 0 0 0 10.9468,-1.999 17.609876,17.609876 0 0 0 9.5189,-10.1849 40.455121,40.455121 0 0 0 0,-26.2721 z m -8.4716,13.1358 a 34.934185,34.934185 0 0 1 -0.8568,8.567 c -1.4279,4.5693 -4.8548,6.6632 -10.7563,6.6632 h -26.4626 v -30.4604 h 26.4626 c 5.9969,0 9.5187,2.0944 10.7563,6.6632 a 34.934185,34.934185 0 0 1 0.8568,8.567 z"
       id="path28-6"
       style="stroke-width:9.51884" /><rect
       class="cls-12"
       x="3236.2043"
       y="-4699.8701"
       width="10.661114"
       height="50.640293"
       id="rect28"
       style="stroke-width:9.51884" /><path
       class="cls-12"
       d="m 3303.4063,-4665.6976 a 15.325351,15.325351 0 0 0 6.2824,-6.9488 20.56072,20.56072 0 0 0 1.8086,-8.567 20.941473,20.941473 0 0 0 -1.8086,-8.2814 v 0 a 19.037703,19.037703 0 0 0 -6.1873,-6.9486 35.124561,35.124561 0 0 0 -18.4667,-3.522 h -32.0783 v 50.6402 h 11.1369 v -12.7552 h 21.9885 l 12.5649,12.7552 h 13.9926 l -13.5166,-14.2783 a 19.037703,19.037703 0 0 0 4.2836,-2.0941 z m -2.6652,-15.5158 a 8.5669664,8.5669664 0 0 1 -1.8087,5.3306 v 0 a 10.565925,10.565925 0 0 1 -5.5209,3.0461 33.030415,33.030415 0 0 1 -7.0441,0.571 h -22.2741 v -17.6099 h 23.7021 a 41.502194,41.502194 0 0 1 6.2825,0 9.5188517,9.5188517 0 0 1 5.14,2.8558 8.471778,8.471778 0 0 1 1.5232,5.8064 z"
       id="path29-0"
       style="stroke-width:9.51884" /><path
       class="cls-12"
       d="m 3324.3478,-4698.0616 a 17.990629,17.990629 0 0 0 -9.519,10.2804 38.836916,38.836916 0 0 0 -2.1895,13.1358 38.075405,38.075405 0 0 0 2.1895,13.1363 17.514687,17.514687 0 0 0 9.519,10.1849 25.986465,25.986465 0 0 0 10.8513,1.999 h 32.2689 v -10.09 h -32.4591 c -5.9018,0 -9.519,-2.0939 -10.6611,-6.6632 a 12.85045,12.85045 0 0 1 -0.6663,-3.522 h 43.7865 v -9.5187 h -43.7865 a 17.990629,17.990629 0 0 1 0.5709,-3.6171 c 1.4281,-4.5693 4.8547,-6.6632 10.7565,-6.6632 h 32.4591 v -10.0903 h -32.2689 a 27.699858,27.699858 0 0 0 -10.8513,1.4281 z"
       id="path30-5"
       style="stroke-width:9.51884" /><polygon
       class="cls-12"
       points="112.1,198.56 113.22,198.56 113.22,194.3 115.72,194.3 115.72,193.25 109.6,193.25 109.6,194.3 112.1,194.3 "
       id="polygon30"
       transform="matrix(9.5188517,0,0,9.5188517,2326.1058,-6539.3885)" /><path
       class="cls-12"
       d="m 3488.4526,-4687.7812 a 17.419499,17.419499 0 0 0 -9.5187,-10.2804 28.556554,28.556554 0 0 0 -10.8516,-1.9038 h -19.7039 a 28.556554,28.556554 0 0 0 -10.9467,1.9038 17.514687,17.514687 0 0 0 -9.519,10.2804 40.550308,40.550308 0 0 0 0,26.2721 17.038744,17.038744 0 0 0 9.519,10.1849 26.462408,26.462408 0 0 0 10.9467,1.999 h 19.7039 a 26.747973,26.747973 0 0 0 10.9467,-1.999 17.609876,17.609876 0 0 0 9.519,-10.1849 40.455121,40.455121 0 0 0 0,-26.2721 z m -8.4716,13.1358 a 30.365136,30.365136 0 0 1 -0.952,8.567 c -1.3327,4.5693 -4.7593,6.6632 -10.6611,6.6632 h -20.0846 c -5.9969,0 -9.519,-2.0939 -10.7565,-6.6632 a 34.363054,34.363054 0 0 1 -0.9519,-8.567 33.791922,33.791922 0 0 1 0.9519,-8.567 c 1.3327,-4.5688 4.7596,-6.6632 10.7565,-6.6632 h 20.0846 c 5.9018,0 9.519,2.0944 10.6611,6.6632 a 30.365136,30.365136 0 0 1 0.952,8.567 z"
       id="path31-0"
       style="stroke-width:9.51884" /><path
       class="cls-12"
       d="m 3544.9948,-4665.6976 a 16.182047,16.182047 0 0 0 6.187,-6.9488 20.56072,20.56072 0 0 0 1.8087,-8.567 20.941473,20.941473 0 0 0 -1.8087,-8.2814 17.705064,17.705064 0 0 0 -6.187,-6.9486 34.934185,34.934185 0 0 0 -18.4667,-3.522 h -31.9834 v 50.6402 h 10.6612 v -12.7552 h 21.9884 l 12.565,12.7552 h 14.0879 l -13.612,-14.2783 a 21.79817,21.79817 0 0 0 4.7596,-2.0941 z m -4.8547,-10.1852 v 0 a 10.185171,10.185171 0 0 1 -5.521,3.0461 33.030415,33.030415 0 0 1 -7.044,0.571 h -22.6548 v -17.6099 h 23.7019 a 40.359932,40.359932 0 0 1 6.2824,0 9.5188517,9.5188517 0 0 1 5.1403,2.8558 8.5669664,8.5669664 0 0 1 1.999,5.521 8.662155,8.662155 0 0 1 -1.9038,5.616 z"
       id="path32-2"
       style="stroke-width:9.51884" /><rect
       class="cls-12"
       x="3556.5122"
       y="-4699.8701"
       width="10.756302"
       height="50.640293"
       id="rect32"
       style="stroke-width:9.51884" /><path
       class="cls-12"
       d="m 3633.615,-4687.7812 a 17.419499,17.419499 0 0 0 -9.5186,-10.2804 28.556554,28.556554 0 0 0 -10.8515,-1.9038 h -19.7994 a 28.556554,28.556554 0 0 0 -10.8512,1.9038 17.514687,17.514687 0 0 0 -9.5191,10.2804 36.647579,36.647579 0 0 0 -2.2845,13.1358 36.266824,36.266824 0 0 0 2.2845,13.1363 17.038744,17.038744 0 0 0 9.5191,10.1849 26.272031,26.272031 0 0 0 10.8512,1.999 h 19.7994 a 27.128727,27.128727 0 0 0 10.9466,-1.999 17.609876,17.609876 0 0 0 9.5189,-10.1849 40.550308,40.550308 0 0 0 0,-26.2721 z m -8.4716,13.1358 a 34.363054,34.363054 0 0 1 -0.9519,8.567 c -1.3325,4.5693 -4.7593,6.6632 -10.7562,6.6632 h -19.9898 c -5.9969,0 -9.5187,-2.0939 -10.7563,-6.6632 a 30.365136,30.365136 0 0 1 -0.9519,-8.567 29.984382,29.984382 0 0 1 0.9519,-8.567 c 1.3327,-4.5688 4.7594,-6.6632 10.7563,-6.6632 h 19.9898 c 5.9969,0 9.5186,2.0944 10.7562,6.6632 a 34.363054,34.363054 0 0 1 0.9519,8.567 z"
       id="path33-9"
       style="stroke-width:9.51884" /><path
       class="cls-12"
       d="m 3716.1437,-4687.7812 a 17.514687,17.514687 0 0 0 -9.519,-10.2804 27.699858,27.699858 0 0 0 -10.8516,-1.9038 h -36.933 v 50.6402 h 36.933 a 26.272031,26.272031 0 0 0 10.8516,-1.999 17.038744,17.038744 0 0 0 9.519,-10.1849 40.550308,40.550308 0 0 0 0,-26.2721 z m -8.3768,13.1358 a 30.365136,30.365136 0 0 1 -0.9516,8.567 c -1.3327,4.5693 -4.7596,6.6632 -10.7565,6.6632 h -26.3671 v -30.4604 h 26.3671 c 5.9969,0 9.5189,2.0944 10.7565,6.6632 a 30.365136,30.365136 0 0 1 0.9516,8.567 z"
       id="path34-4"
       style="stroke-width:9.51884" /><path
       class="cls-12"
       d="m 3731.8498,-4698.0616 a 17.514687,17.514687 0 0 0 -9.519,10.2804 38.836916,38.836916 0 0 0 -2.1892,13.1358 38.075405,38.075405 0 0 0 2.1892,13.1363 17.324311,17.324311 0 0 0 9.519,10.1849 26.462408,26.462408 0 0 0 10.9466,1.999 h 32.269 v -10.09 h -32.4595 c -5.9968,0 -9.5187,-2.0939 -10.7561,-6.6632 a 25.986465,25.986465 0 0 1 -0.6664,-3.522 h 43.882 v -9.5187 h -43.882 a 27.60467,27.60467 0 0 1 0.6664,-3.6171 c 1.3325,-4.5693 4.7593,-6.6632 10.7561,-6.6632 h 32.4595 v -10.0903 h -32.269 a 28.556554,28.556554 0 0 0 -10.9466,1.4281 z"
       id="path35-3"
       style="stroke-width:9.51884" /><path
       class="cls-12"
       d="m 3972.867,-4684.9257 a 15.42054,15.42054 0 0 0 -1.5228,-6.5681 13.897523,13.897523 0 0 0 -4.9499,-5.6158 27.223916,27.223916 0 0 0 -14.5639,-2.8558 h -38.0755 v 48.8317 l -29.4131,-48.8317 h -8.1864 l -28.5565,47.023 v -6.4728 h -38.7416 v -40.4551 h -10.7564 v 40.4551 a 9.5188517,9.5188517 0 0 0 2.8558,7.3296 9.5188517,9.5188517 0 0 0 7.3294,2.8558 h 49.2125 l 5.7113,-9.519 h 33.9824 l 5.6158,9.519 h 48.6415 a 27.890235,27.890235 0 0 0 14.5639,-2.7607 13.802335,13.802335 0 0 0 4.9499,-5.6163 15.801294,15.801294 0 0 0 1.5229,-6.5677 13.611958,13.611958 0 0 0 -1.7134,-6.6632 12.088941,12.088941 0 0 0 -3.046,-3.6172 12.755261,12.755261 0 0 0 3.046,-3.7123 13.231204,13.231204 0 0 0 2.0941,-6.7585 z m -81.3862,16.087 h -21.798 l 10.8512,-18.086 z m 69.5829,-13.041 v 0 a 5.8064994,5.8064994 0 0 1 -3.1413,1.7136 19.037703,19.037703 0 0 1 -4.5688,0 h -28.5567 v -9.9951 h 33.2209 a 5.2353684,5.2353684 0 0 1 3.0459,1.7137 4.5690487,4.5690487 0 0 1 1.047,3.0459 4.7594258,4.7594258 0 0 1 -1.047,3.5219 z m -36.2668,12.2793 h 28.5567 a 23.511564,23.511564 0 0 1 4.4737,0 6.4728191,6.4728191 0 0 1 3.2364,1.8087 4.3786717,4.3786717 0 0 1 1.047,2.8555 5.0449912,5.0449912 0 0 1 -1.047,3.2365 v 0 a 5.520934,5.520934 0 0 1 -2.9508,1.6182 21.512604,21.512604 0 0 1 -3.9979,0 h -29.3181 z"
       id="path36-5"
       style="stroke-width:9.51884" /><path
       class="cls-12"
       d="m 4036.8337,-4687.7812 a 17.514687,17.514687 0 0 0 -9.5189,-10.2804 28.556554,28.556554 0 0 0 -10.8515,-1.9038 h -19.4184 a 28.556554,28.556554 0 0 0 -10.9467,1.9038 17.514687,17.514687 0 0 0 -9.519,10.2804 38.836916,38.836916 0 0 0 -2.189,13.1358 38.075405,38.075405 0 0 0 2.189,13.1363 17.609876,17.609876 0 0 0 9.519,10.1849 26.747973,26.747973 0 0 0 10.9467,1.999 h 19.7993 a 26.652784,26.652784 0 0 0 10.8514,-1.999 17.038744,17.038744 0 0 0 9.5189,-10.1849 40.550308,40.550308 0 0 0 0,-26.2721 z m -8.4719,13.1358 a 34.934185,34.934185 0 0 1 -0.8565,8.567 c -1.4279,4.5693 -4.8547,6.6632 -10.7565,6.6632 h -19.7039 c -5.9969,0 -9.5189,-2.0939 -10.7562,-6.6632 a 34.934185,34.934185 0 0 1 -0.8568,-8.567 34.458244,34.458244 0 0 1 0.8568,-8.567 c 1.4278,-4.5688 4.7593,-6.6632 10.7562,-6.6632 h 20.0847 c 5.9018,0 9.5189,2.0944 10.7565,6.6632 a 34.934185,34.934185 0 0 1 0.4757,8.567 z"
       id="path37-1"
       style="stroke-width:9.51884" /><path
       class="cls-12"
       d="m 4126.0253,-4699.9654 -27.9854,46.2615 -9.5189,-9.5187 a 19.8944,19.8944 0 0 0 4.7596,-2.0944 16.182047,16.182047 0 0 0 6.1871,-6.9487 19.037703,19.037703 0 0 0 1.8087,-8.5667 19.037703,19.037703 0 0 0 -1.8087,-8.2815 17.705064,17.705064 0 0 0 -6.1871,-6.9487 34.743809,34.743809 0 0 0 -18.3715,-3.5222 h -32.0785 v 50.6405 h 10.6612 v -12.7554 h 22.0836 l 12.4698,12.7554 h 19.0376 l 5.7113,-9.519 h 33.8871 l 5.7116,9.519 h 12.0887 l -30.5555,-50.6405 z m 15.0397,31.1267 h -21.798 l 10.8516,-18.086 z m -52.2584,-7.0441 v 0 a 9.5188517,9.5188517 0 0 1 -5.4256,3.0461 33.030415,33.030415 0 0 1 -7.044,0.571 h -22.7501 v -17.6099 h 23.7021 a 42.263702,42.263702 0 0 1 6.3775,0 8.9477205,8.9477205 0 0 1 5.045,2.8558 7.9958355,7.9958355 0 0 1 1.9989,5.521 8.662155,8.662155 0 0 1 -1.9038,5.616 z"
       id="path38-7"
       style="stroke-width:9.51884" /><polygon
       class="cls-12"
       points="194.26,198.56 195.39,198.56 195.39,194.3 197.89,194.3 197.89,193.25 191.76,193.25 191.76,194.3 194.26,194.3 "
       id="polygon38"
       transform="matrix(9.5188517,0,0,9.5188517,2326.1058,-6539.3885)" /><path
       class="cls-12"
       d="m 4270.5215,-4687.7812 a 17.514687,17.514687 0 0 0 -9.519,-10.2804 28.556554,28.556554 0 0 0 -10.8512,-1.9038 h -19.7994 a 28.556554,28.556554 0 0 0 -10.9466,1.9038 17.514687,17.514687 0 0 0 -9.5187,10.2804 38.836916,38.836916 0 0 0 -2.1895,13.1358 38.075405,38.075405 0 0 0 2.1895,13.1363 17.038744,17.038744 0 0 0 9.5187,10.1849 26.747973,26.747973 0 0 0 10.9466,1.999 h 19.7994 a 26.652784,26.652784 0 0 0 10.8512,-1.999 17.609876,17.609876 0 0 0 9.519,-10.1849 40.550308,40.550308 0 0 0 0,-26.2721 z m -8.4716,13.1358 a 34.934185,34.934185 0 0 1 -0.8568,8.567 c -1.4277,4.5693 -4.8548,6.6632 -10.7563,6.6632 h -20.0849 c -5.9968,0 -9.5187,-2.0939 -10.7561,-6.6632 a 34.934185,34.934185 0 0 1 -0.8569,-8.567 34.458244,34.458244 0 0 1 0.8569,-8.567 c 1.4277,-4.5688 4.7593,-6.6632 10.7561,-6.6632 h 20.0849 c 5.9015,0 9.5187,2.0944 10.7563,6.6632 a 34.934185,34.934185 0 0 1 0.8568,8.567 z"
       id="path39-4"
       style="stroke-width:9.51884" /><path
       class="cls-12"
       d="m 4327.0634,-4665.6976 a 16.182047,16.182047 0 0 0 6.1874,-6.9488 19.037703,19.037703 0 0 0 1.8085,-8.567 19.037703,19.037703 0 0 0 -1.8085,-8.2814 17.705064,17.705064 0 0 0 -6.1874,-6.9486 34.743809,34.743809 0 0 0 -18.3712,-3.522 h -32.0787 v 50.6402 h 10.6611 v -12.7552 h 22.0839 l 12.4696,12.7552 h 14.088 l -13.612,-14.2783 a 19.8944,19.8944 0 0 0 4.7593,-2.0941 z m -4.5691,-10.1852 v 0 a 9.5188517,9.5188517 0 0 1 -5.4256,3.0461 33.601546,33.601546 0 0 1 -7.0439,0.571 h -22.7502 v -17.6099 h 23.8923 a 40.359932,40.359932 0 0 1 6.2824,0 8.9477205,8.9477205 0 0 1 5.1404,2.8558 7.9958355,7.9958355 0 0 1 1.999,5.521 8.662155,8.662155 0 0 1 -2.0944,5.616 z"
       id="path40-3"
       style="stroke-width:9.51884" /><rect
       class="cls-12"
       x="4338.5811"
       y="-4699.8701"
       width="10.756302"
       height="50.640293"
       id="rect40"
       style="stroke-width:9.51884" /><path
       class="cls-12"
       d="m 4415.8743,-4687.7812 a 17.419499,17.419499 0 0 0 -9.5186,-10.2804 28.556554,28.556554 0 0 0 -10.8517,-1.9038 H 4375.8 a 28.556554,28.556554 0 0 0 -10.9466,1.9038 17.514687,17.514687 0 0 0 -9.5189,10.2804 36.647579,36.647579 0 0 0 -2.2847,13.1358 36.266824,36.266824 0 0 0 2.2847,13.1363 17.038744,17.038744 0 0 0 9.5189,10.1849 26.462408,26.462408 0 0 0 10.9466,1.999 h 19.704 a 26.747973,26.747973 0 0 0 10.9466,-1.999 17.609876,17.609876 0 0 0 9.5191,-10.1849 40.550308,40.550308 0 0 0 0,-26.2721 z m -8.4717,13.1358 a 30.365136,30.365136 0 0 1 -0.952,8.567 c -1.3325,4.5693 -4.7593,6.6632 -10.6609,6.6632 h -20.0847 c -5.9969,0 -9.5189,-2.0939 -10.7565,-6.6632 a 34.363054,34.363054 0 0 1 -0.9519,-8.567 33.791922,33.791922 0 0 1 0.9519,-8.567 c 1.3326,-4.5688 4.7596,-6.6632 10.7565,-6.6632 h 20.0847 c 5.9016,0 9.5189,2.0944 10.6609,6.6632 a 30.365136,30.365136 0 0 1 0.7616,8.567 z"
       id="path41-1"
       style="stroke-width:9.51884" /><path
       class="cls-12"
       d="m 4480.6025,-4671.2186 a 12.564884,12.564884 0 0 0 -5.045,-5.6159 27.509482,27.509482 0 0 0 -14.4685,-2.8557 h -22.274 a 25.129769,25.129769 0 0 1 -4.4741,0 6.0920649,6.0920649 0 0 1 -3.141,-1.8086 4.1882947,4.1882947 0 0 1 -1.1424,-2.8558 5.0449912,5.0449912 0 0 1 1.1424,-3.3315 5.1401799,5.1401799 0 0 1 3.0459,-1.5232 19.037703,19.037703 0 0 1 3.9979,0 h 24.178 a 19.799212,19.799212 0 0 1 3.9979,0 4.2834833,4.2834833 0 0 1 2.9507,1.6183 4.6642375,4.6642375 0 0 1 1.1424,3.1414 v 1.9989 h 10.661 v -1.9989 a 15.801294,15.801294 0 0 0 -1.4277,-6.6633 14.183089,14.183089 0 0 0 -5.045,-5.6161 27.223916,27.223916 0 0 0 -14.5639,-2.8558 h -19.7042 a 27.890235,27.890235 0 0 0 -14.659,2.8558 12.945638,12.945638 0 0 0 -4.8545,5.6161 14.278277,14.278277 0 0 0 -1.523,6.6633 15.610916,15.610916 0 0 0 1.4276,6.7582 11.993753,11.993753 0 0 0 5.0453,5.6163 27.699858,27.699858 0 0 0 14.5636,2.8557 h 22.1791 a 16.372425,16.372425 0 0 1 4.3785,0.4758 6.0920649,6.0920649 0 0 1 3.3317,1.7133 4.5690487,4.5690487 0 0 1 1.047,2.8558 4.7594258,4.7594258 0 0 1 -1.047,3.2362 5.6161224,5.6161224 0 0 1 -3.046,1.7136 35.695694,35.695694 0 0 1 -3.998,0 h -24.2731 a 14.944597,14.944597 0 0 1 -3.9978,0 5.1401799,5.1401799 0 0 1 -2.9509,-1.523 4.7594258,4.7594258 0 0 1 -1.1421,-3.2366 v -2.3796 h -10.566 v 2.094 a 15.42054,15.42054 0 0 0 1.4277,6.5682 13.897523,13.897523 0 0 0 4.9498,5.6161 27.890235,27.890235 0 0 0 14.6591,2.8558 h 19.7992 a 27.699858,27.699858 0 0 0 14.564,-2.8558 13.897523,13.897523 0 0 0 4.9498,-5.6161 15.42054,15.42054 0 0 0 1.4277,-6.5682 16.086859,16.086859 0 0 0 -1.5231,-6.9487 z"
       id="path42-4"
       style="stroke-width:9.51884" /><text
       class="cls-18"
       id="text54"
       x="3174.7119"
       y="-4583.3599"
       style="stroke-width:9.51884">UNI<tspan
   class="cls-19"
   x="3277.7053"
   y="-4583.3599"
   id="tspan42"
   style="stroke-width:9.51884">V</tspan><tspan
   class="cls-20"
   x="3319.4937"
   y="-4583.3599"
   id="tspan43"
   style="stroke-width:9.51884">E</tspan><tspan
   class="cls-21"
   x="3359.9487"
   y="-4583.3599"
   id="tspan44"
   style="stroke-width:9.51884">R</tspan><tspan
   x="3402.6887"
   y="-4583.3599"
   id="tspan45"
   style="stroke-width:9.51884">SI</tspan><tspan
   class="cls-22"
   x="3460.1816"
   y="-4583.3599"
   id="tspan46"
   style="stroke-width:9.51884">D</tspan><tspan
   x="3502.7314"
   y="-4583.3599"
   id="tspan47"
   style="stroke-width:9.51884">ADE DO E</tspan><tspan
   class="cls-19"
   x="3791.2478"
   y="-4583.3599"
   id="tspan48"
   style="stroke-width:9.51884">S</tspan><tspan
   class="cls-23"
   x="3834.8438"
   y="-4583.3599"
   id="tspan49"
   style="stroke-width:9.51884">T</tspan><tspan
   x="3869.302"
   y="-4583.3599"
   id="tspan50"
   style="stroke-width:9.51884">ADO DO AMA</tspan><tspan
   class="cls-19"
   x="4262.0503"
   y="-4583.3599"
   id="tspan51"
   style="stroke-width:9.51884">Z</tspan><tspan
   x="4301.4585"
   y="-4583.3599"
   id="tspan52"
   style="stroke-width:9.51884">ON</tspan><tspan
   class="cls-22"
   x="4392.5532"
   y="-4583.3599"
   id="tspan53"
   style="stroke-width:9.51884">A</tspan><tspan
   x="4434.3423"
   y="-4583.3599"
   id="tspan54"
   style="stroke-width:9.51884">S</tspan></text></g></svg>
