<?xml version="1.0" encoding="UTF-8" standalone="no"?>
<!-- Created with Inkscape (http://www.inkscape.org/) -->

<svg
   width="723.32404mm"
   height="306.3999mm"
   viewBox="0 0 723.32404 306.3999"
   version="1.1"
   id="svg1"
   xml:space="preserve"
   xmlns:inkscape="http://www.inkscape.org/namespaces/inkscape"
   xmlns:sodipodi="http://sodipodi.sourceforge.net/DTD/sodipodi-0.dtd"
   xmlns="http://www.w3.org/2000/svg"
   xmlns:svg="http://www.w3.org/2000/svg"><sodipodi:namedview
     id="namedview1"
     pagecolor="#505050"
     bordercolor="#eeeeee"
     borderopacity="1"
     inkscape:showpageshadow="0"
     inkscape:pageopacity="0"
     inkscape:pagecheckerboard="0"
     inkscape:deskcolor="#505050"
     inkscape:document-units="mm" /><defs
     id="defs1" /><g
     inkscape:label="Camada 1"
     inkscape:groupmode="layer"
     id="layer1"
     transform="translate(-2672.3492,2556.1843)"><g
       style="clip-rule:evenodd;fill-rule:evenodd;image-rendering:optimizeQuality;shape-rendering:geometricPrecision;text-rendering:geometricPrecision"
       id="g96"
       transform="matrix(1.0181149,0,0,1.0181149,2009.8762,-2588.1946)"><g
         id="Camada_x0020_1"
         inkscape:label="Camada 1"
         inkscape:groupmode="layer"> <metadata
   id="CorelCorpID_0Corel-Layer" /> <rect
   fill="none"
   width="1381.5601"
   height="251.92"
   id="rect1"
   x="0"
   y="0" /><g
   id="g10"
   transform="matrix(1.531381,0,0,1.531381,-723.28397,-10.977253)"> <path
   fill="#ffffff"
   fill-rule="nonzero"
   d="m 1064.91,55.14 c -2.77,-5.76 -31.36,-28.39 -69.43,-27.41 -24.39,0.63 -57.86,13.73 -71.28,34.68 -4.2,6.57 0.67,12.76 8.28,14.78 11.76,2.51 36.4,-9.36 57.05,-18.3 v 0 c 13.65,-6.22 20.99,-8.57 29.04,-9.69 4.55,-0.63 36.23,-3.68 46.34,5.94 z"
   id="path3-4" /> <path
   fill="#bdbfc1"
   fill-rule="nonzero"
   d="m 989.53,58.89 c 2.89,1.78 28.24,1.65 46.33,27.3 6.3,8.94 23.14,5.94 29.32,1.12 6.65,-5.19 6.92,-13.86 6.93,-14.99 0.1,-6.52 -2.56,-12.76 -7.2,-17.18 -10.11,-9.62 -41.79,-6.57 -46.34,-5.94 -8.05,1.12 -15.39,3.47 -29.04,9.69 z"
   id="path4-2" /> <path
   fill="#ffffff"
   fill-rule="nonzero"
   d="m 900.66,102.15 c -3.6,5.27 -8.9,41.34 10.98,73.82 12.74,20.81 40.82,43.25 65.68,44.39 7.78,0.35 10.71,-6.96 8.65,-14.56 -3.7,-11.43 -26.31,-26.84 -44.37,-40.26 v 0 c -12.22,-8.7 -17.91,-13.89 -22.91,-20.29 -2.82,-3.63 -21.3,-29.54 -18.03,-43.1 z"
   id="path5-9" /> <path
   fill="#bdbfc1"
   fill-rule="nonzero"
   d="m 941.6,165.54 c 0.1,-3.39 -12.69,-25.27 0.48,-53.76 4.59,-9.93 -6.43,-23.01 -13.69,-25.96 -7.82,-3.16 -15.47,0.95 -16.45,1.49 -5.7,3.18 -9.77,8.6 -11.28,14.84 -3.27,13.56 15.21,39.47 18.03,43.1 5,6.4 10.69,11.59 22.91,20.29 z"
   id="path6-6" /> <path
   fill="#ffffff"
   fill-rule="nonzero"
   d="m 1023.5,220.88 c 6.36,0.48 40.26,-12.96 58.45,-46.42 11.64,-21.43 17.03,-56.98 5.59,-79.07 -3.58,-6.92 -11.38,-5.8 -16.93,-0.21 -8.06,8.92 -10.09,36.2 -12.68,58.55 v 0 c -1.43,14.93 -3.07,22.46 -6.12,29.98 -1.73,4.27 -14.93,33.22 -28.31,37.17 z"
   id="path7-1" /> <path
   fill="#bdbfc1"
   fill-rule="nonzero"
   d="m 1057.93,153.73 c -2.99,1.62 -15.54,23.63 -46.81,26.47 -10.89,0.99 -16.71,17.07 -15.62,24.82 1.16,8.36 8.54,12.93 9.51,13.51 5.6,3.35 12.33,4.16 18.49,2.35 13.38,-3.95 26.58,-32.9 28.31,-37.17 3.05,-7.52 4.69,-15.05 6.12,-29.98 z"
   id="path8-0" /> <path
   fill="#ffffff"
   d="m 1323.08,44.77 7.91,24.71 c 0.9,2.71 2.17,5.86 2.78,8.48 h -21.94 c 0.32,-1.38 0.86,-2.72 1.34,-4.15 l 8.08,-24.82 c 0.29,-0.88 0.46,-1.34 0.71,-2.17 0.41,-1.31 0.37,-1.48 1.12,-2.05 z m 37.82,175.47 -202.61,1.97 202.61,2.01 z m -202.61,-100.14 202.61,1.97 -202.61,2.01 z m 0.29,-38.39 c 0,11.81 5.96,21.59 17.02,25.98 8.78,3.49 22.13,3.08 30.81,-0.37 6.97,-2.78 12.5,-8.74 14.51,-16.08 1.19,-4.35 1.73,-8.27 1.73,-13.86 V 28.61 c 0,-0.66 -0.19,-0.86 -0.83,-0.87 h -0.04 -15.87 v 51.37 c 0,10.59 -4.85,16.45 -15.01,16.45 -6.65,0 -11.14,-1.7 -13.86,-7.2 -2.37,-4.82 -1.72,-12.22 -1.72,-19.35 l 0.02,-39.27 c 0.01,-1.08 0.23,-2 -0.89,-2 h -15.87 z m 72.15,26.27 h 71.58 c 0.12,-1.46 4.85,-15.73 5.19,-16.46 h 30.59 l 5.61,16.41 17.2,0.05 c -0.13,-1.48 -1.12,-3.5 -1.63,-5.02 l -7.2,-19.93 c -0.68,-1.76 -1.27,-3.45 -1.81,-5.11 l -10.81,-29.89 c -0.64,-1.62 -1.18,-3.24 -1.75,-4.88 l -5.38,-15.12 h -19.33 c -0.11,1.28 -5.09,14.99 -5.61,16.33 l -8.64,24.26 c -0.95,2.78 -1.97,5.28 -2.89,8.08 -0.61,1.85 -5.55,14.92 -5.66,16.27 h -43.3 v -20.2 h 38.1 V 58.91 h -38.1 V 42.17 h 40.99 c 0.66,0 0.86,-0.2 0.86,-0.86 V 28.03 h -58.01 z"
   id="path9" /> <path
   fill="#ffffff"
   d="m 1158.26,142.35 c 0,5.1 2.49,7.71 7.46,7.71 5.35,0 8.09,-2.61 8.09,-7.71 v -11.94 h -2.74 v 11.94 c 0,3.48 -1.61,5.22 -5.1,5.22 -3.48,0 -4.97,-1.61 -4.97,-5.22 v -11.94 h -2.74 z m 20.4,7.21 h 2.49 v -15.54 c 0.25,0.62 0.5,0.99 0.74,1.36 l 9.58,14.18 h 2.86 v -19.15 h -2.48 v 15.55 c -0.25,-0.5 -0.63,-1.12 -1,-1.62 l -9.33,-13.93 h -2.86 z m 20.52,0 h 2.74 v -19.15 h -2.74 z m 12.69,0 h 2.86 l 6.97,-19.15 h -2.86 l -5.48,16.04 -5.84,-16.04 h -2.74 z m 12.56,0 h 14.44 v -2.36 h -11.7 v -6.47 h 10.7 v -2.24 h -10.7 v -5.72 h 11.57 v -2.36 h -14.31 z m 18.42,-19.15 v 19.15 h 2.73 v -8.21 h 4.36 c 3.35,0 4.23,0.25 4.35,3.12 l 0.25,2.48 c 0,1.12 0.12,1.99 0.5,2.61 h 3.11 v -0.49 c -0.63,-0.38 -0.88,-1 -0.88,-2.24 l -0.25,-3.11 c -0.12,-2.12 -0.49,-3.11 -2.24,-3.61 1.75,-0.87 2.74,-2.36 2.74,-4.35 0,-2.24 -0.99,-3.86 -2.61,-4.73 -1.24,-0.62 -2.61,-0.62 -4.35,-0.62 z m 2.61,2.24 h 4.73 c 2.98,0 4.47,0.5 4.47,3.11 0,2.61 -1.37,3.36 -4.47,3.36 h -4.73 z m 15.55,10.57 c 0.12,4.48 2.98,6.84 7.83,6.84 4.73,0 7.59,-2.36 7.59,-5.97 0,-1.62 -0.62,-2.86 -1.62,-3.73 -1.12,-0.87 -2.61,-1.24 -4.6,-1.62 -4.23,-0.99 -5.97,-1.12 -5.97,-3.6 0,-1.87 1.62,-3.12 4.35,-3.12 2.74,0 4.48,1.5 4.73,3.99 h 2.49 c 0,-3.74 -2.61,-6.1 -7.09,-6.1 -4.36,0 -7.09,2.36 -7.09,5.72 0,3.36 2.24,4.23 6.71,5.23 3.49,0.87 5.35,1.11 5.35,3.48 0,2.11 -1.74,3.48 -4.97,3.48 -3.11,0 -5.1,-1.74 -5.1,-4.6 z m 19.52,6.34 h 2.62 v -19.15 h -2.62 z m 7.72,0 h 7.46 c 5.35,0 8.71,-3.6 8.71,-9.82 0,-6.1 -3.11,-9.33 -8.59,-9.33 h -7.58 z m 7.33,-16.91 c 3.86,0 5.98,2.49 5.98,7.21 0,4.85 -2,7.34 -5.98,7.34 h -4.72 v -14.55 z m 10.33,16.91 h 2.86 l 2.11,-5.72 h 7.84 l 2.12,5.72 h 2.98 l -7.46,-19.15 h -2.99 z m 5.84,-7.96 3.11,-8.45 3.11,8.45 z m 14.68,7.96 h 7.59 c 5.35,0 8.58,-3.6 8.58,-9.82 0,-6.1 -2.98,-9.33 -8.58,-9.33 h -7.59 z m 7.46,-16.91 c 3.86,0 5.98,2.49 5.98,7.21 0,4.85 -2.12,7.34 -5.98,7.34 h -4.72 v -14.55 z m 12.82,16.91 h 14.43 v -2.36 h -11.7 v -6.47 h 10.58 v -2.24 h -10.58 v -5.72 h 11.45 v -2.36 h -14.18 z m -188.32,31.85 h 7.46 c 5.47,0 8.71,-3.49 8.71,-9.83 0,-6.1 -2.99,-9.33 -8.59,-9.33 h -7.58 z m 7.33,-16.92 c 3.86,0 6.1,2.49 6.1,7.21 0,4.85 -2.11,7.34 -6.1,7.34 h -4.6 v -14.55 z m 11.32,7.34 c 0,6.47 3.61,10.2 9.46,10.2 5.84,0 9.45,-3.73 9.45,-10.2 0,-6.35 -3.61,-10.08 -9.45,-10.08 -5.85,0 -9.46,3.73 -9.46,10.08 z m 2.86,0 c 0,-4.97 2.49,-7.84 6.6,-7.84 4.1,0 6.71,2.87 6.71,7.84 0,4.97 -2.61,7.83 -6.71,7.83 -4.11,0 -6.6,-2.86 -6.6,-7.83 z m 26.87,9.58 h 14.43 v -2.37 h -11.69 v -6.47 h 10.7 v -2.23 h -10.7 v -5.73 h 11.57 v -2.36 h -14.31 z m 16.8,-6.22 c 0.24,4.35 2.98,6.72 7.83,6.72 4.73,0 7.71,-2.37 7.71,-5.97 0,-1.62 -0.62,-2.87 -1.62,-3.74 -1.11,-0.87 -2.73,-1.24 -4.59,-1.61 -4.24,-1 -6.1,-1.13 -6.1,-3.61 0,-1.74 1.74,-3.11 4.35,-3.11 2.86,0 4.6,1.49 4.73,3.98 h 2.61 c 0,-3.73 -2.74,-6.1 -7.09,-6.1 -4.35,0 -7.09,2.37 -7.09,5.73 0,3.36 2.24,4.22 6.59,5.22 3.61,0.87 5.48,1.24 5.48,3.48 0,2.12 -1.87,3.48 -4.98,3.48 -3.11,0 -5.1,-1.74 -5.22,-4.47 z m 23.25,6.22 h 2.74 v -16.8 h 6.22 v -2.36 h -15.18 v 2.36 h 6.22 z m 8.22,0 h 2.73 l 2.12,-5.73 h 7.83 l 2.12,5.73 h 2.98 l -7.46,-19.16 h -2.99 z m 5.72,-7.96 3.11,-8.46 3.11,8.46 z m 14.05,7.96 h 7.59 c 5.35,0 8.71,-3.49 8.71,-9.83 0,-6.1 -3.11,-9.33 -8.71,-9.33 h -7.59 z m 7.47,-16.92 c 3.85,0 5.97,2.49 5.97,7.21 0,4.85 -1.99,7.34 -5.97,7.34 h -4.73 v -14.55 z m 11.31,7.34 c 0,6.47 3.61,10.2 9.46,10.2 5.85,0 9.45,-3.73 9.45,-10.2 0,-6.35 -3.6,-10.08 -9.45,-10.08 -5.85,0 -9.46,3.73 -9.46,10.08 z m 2.74,0 c 0,-4.97 2.61,-7.84 6.72,-7.84 4.1,0 6.59,2.87 6.59,7.84 0,4.97 -2.49,7.83 -6.59,7.83 -4.11,0 -6.72,-2.86 -6.72,-7.83 z m 27.12,9.58 h 7.46 c 5.48,0 8.71,-3.49 8.71,-9.83 0,-6.1 -2.99,-9.33 -8.58,-9.33 h -7.59 z m 7.34,-16.92 c 3.85,0 6.09,2.49 6.09,7.21 0,4.85 -2.11,7.34 -6.09,7.34 h -4.6 v -14.55 z m 11.44,7.34 c 0,6.47 3.61,10.2 9.45,10.2 5.85,0 9.33,-3.73 9.33,-10.2 0,-6.35 -3.48,-10.08 -9.33,-10.08 -5.84,0 -9.45,3.73 -9.45,10.08 z m 2.73,0 c 0,-4.97 2.62,-7.84 6.72,-7.84 4.11,0 6.6,2.87 6.6,7.84 0,4.97 -2.49,7.83 -6.6,7.83 -4.1,0 -6.72,-2.86 -6.72,-7.83 z m -186.21,41.67 h 2.74 l 2.24,-5.85 h 7.83 l 2.12,5.85 h 2.86 l -7.34,-19.28 h -3.11 z m 5.72,-8.09 3.11,-8.45 3.11,8.45 z m 23.73,-8.33 c 0.13,0.62 0.25,1.12 0.5,1.74 l 4.98,14.68 h 2.61 l 4.97,-14.68 c 0.13,-0.5 0.25,-1.12 0.5,-1.74 v 16.42 h 2.61 v -19.28 h -3.85 l -5.1,14.68 c -0.13,0.5 -0.25,0.99 -0.38,1.61 -0.12,-0.37 -0.25,-0.99 -0.49,-1.61 l -4.98,-14.68 h -3.85 v 19.28 h 2.48 z m 25.35,16.42 h 2.74 l 2.11,-5.85 h 7.84 l 2.11,5.85 h 2.99 l -7.47,-19.28 h -2.98 z m 5.72,-8.09 3.11,-8.45 3.11,8.45 z m 19.87,8.09 h 15.3 v -2.36 h -11.94 l 11.94,-14.43 v -2.49 h -14.55 v 2.36 h 11.44 l -12.19,14.68 z m 24.23,-9.58 c 0,6.34 3.61,10.07 9.45,10.07 5.72,0 9.33,-3.73 9.33,-10.07 0,-6.47 -3.61,-10.2 -9.33,-10.2 -5.84,0 -9.45,3.73 -9.45,10.2 z m 2.74,0 c 0,-5.1 2.61,-7.96 6.71,-7.96 3.98,0 6.59,2.86 6.59,7.96 0,4.98 -2.61,7.84 -6.59,7.84 -4.1,0 -6.71,-2.86 -6.71,-7.84 z m 27.24,9.58 h 2.61 v -15.55 c 0.12,0.5 0.37,0.99 0.74,1.37 l 9.46,14.18 h 2.98 v -19.28 h -2.61 v 15.55 c -0.25,-0.5 -0.62,-1 -0.87,-1.62 l -9.33,-13.93 h -2.98 z m 25.49,0 h 2.86 l 2.12,-5.85 h 7.84 l 2.11,5.85 h 2.99 l -7.47,-19.28 h -2.98 z m 5.85,-8.09 3.11,-8.45 3.11,8.45 z m 20.9,1.74 c 0.25,4.36 2.98,6.84 7.83,6.84 4.73,0 7.59,-2.48 7.59,-6.09 0,-1.62 -0.5,-2.86 -1.61,-3.61 -1.12,-0.99 -2.62,-1.24 -4.48,-1.74 -4.23,-0.99 -6.1,-1.12 -6.1,-3.61 0,-1.74 1.62,-2.98 4.36,-2.98 2.86,0 4.47,1.37 4.72,3.98 h 2.61 c 0,-3.86 -2.73,-6.22 -7.09,-6.22 -4.48,0 -7.21,2.36 -7.21,5.72 0,3.36 2.36,4.23 6.72,5.35 3.6,0.75 5.47,1.12 5.47,3.36 0,2.11 -1.87,3.48 -4.98,3.48 -3.11,0 -5.09,-1.74 -5.22,-4.48 z"
   id="path10" /> <polygon
   fill="#ffffff"
   points="1129.04,27.74 1129.04,224.22 1123.36,224.22 1123.36,27.74 "
   id="polygon10" /> </g><g
   id="g97"
   transform="matrix(1.531381,0,0,1.531381,-723.28397,-10.977253)"
   inkscape:export-filename="propesp_svg_horizontal_branca.svg"
   inkscape:export-xdpi="96"
   inkscape:export-ydpi="96"><g
     id="g2"> <path
   fill="#ffffff"
   fill-rule="nonzero"
   d="m 123.44,190.08 c 2.99,0.11 5.94,0.02 8.83,-0.26 l -8.3,-14.56 -9.41,13.86 c 2.9,0.51 5.86,0.84 8.88,0.96 z m 5,-128.23 c 2.99,0.11 5.92,0.43 8.78,0.94 l -9.41,13.86 -8.3,-14.54 c 2.93,-0.29 5.91,-0.38 8.93,-0.26 z m 10.58,1.28 c 5.91,1.23 11.52,3.25 16.7,5.97 l -13.15,10.41 z m 18.3,6.84 c 5.2,2.91 9.95,6.53 14.13,10.71 l -15.65,5.99 z m 15.4,12.03 0.41,0.43 c 3.88,4.2 7.2,8.91 9.86,14.01 l -16.72,1.02 z m 11.1,16.08 c 2.55,5.26 4.4,10.92 5.44,16.85 l -16.22,-4.04 z m 5.73,18.68 c 0.55,3.77 0.77,7.64 0.63,11.58 v 0.06 0.13 0.06 c -0.17,3.94 -0.69,7.78 -1.53,11.49 l -13.87,-10.42 0.06,-1.67 0.01,-0.25 0.06,-1.66 z m -127.84,6.57 c 0.17,-3.94 0.69,-7.77 1.53,-11.49 l 13.95,10.5 -0.07,1.59 -0.01,0.25 -0.06,1.6 -14.72,9.38 c -0.55,-3.77 -0.77,-7.64 -0.63,-11.58 v -0.06 l 0.01,-0.13 z m 1.97,-13.3 c 1.49,-5.82 3.78,-11.32 6.73,-16.37 l 9.76,13.61 z m 7.69,-17.94 c 3.04,-4.88 6.72,-9.32 10.92,-13.2 l 0.44,-0.4 5.22,15.92 z M 84.1,77.28 c 4.49,-3.85 9.5,-7.08 14.92,-9.59 l 0.21,16.77 z m 16.58,-10.33 c 5.38,-2.3 11.13,-3.89 17.12,-4.64 l -4.82,16.05 z m 37.4,-3.5 -0.1,-0.02 -9.35,13.77 c 4.52,0.25 8.87,1.11 12.97,2.49 z m 18.17,6.49 -13.04,10.33 c 1.09,0.41 2.15,0.85 3.2,1.33 2.98,1.38 5.8,3.04 8.41,4.95 l 1.51,-16.57 z m 15.45,11.7 -15.52,5.94 c 2.03,1.6 3.92,3.35 5.67,5.24 l 0.03,0.02 c 1.24,1.34 2.4,2.76 3.49,4.23 l 6.4,-15.35 z m 11.24,15.79 -16.6,1.01 c 2.27,3.3 4.13,6.89 5.54,10.7 l 0.39,1.12 10.72,-12.73 z m 5.98,18.43 -16.13,-4.01 c 1.26,4.16 1.99,8.55 2.09,13.08 l 14.06,-8.94 z M 108.99,80.14 c 1.08,-0.4 2.18,-0.76 3.29,-1.08 l -12.19,-11.31 -0.08,0.04 0.21,16.63 c 2.76,-1.7 5.69,-3.14 8.77,-4.28 z m 4.94,-1.53 c 4.17,-1.05 8.53,-1.56 13.02,-1.47 L 118.71,62.7 Z M 92.69,90.15 c 1.9,-1.76 3.94,-3.37 6.1,-4.81 l -15.01,-7.13 -0.08,0.08 5.19,15.8 c 1.19,-1.39 2.46,-2.7 3.8,-3.94 z m -11.23,15.47 c 1.69,-3.69 3.83,-7.12 6.35,-10.24 l -16.47,-2.3 -0.06,0.09 9.69,13.53 z m -4.23,15.5 c 0.46,-4.51 1.52,-8.82 3.11,-12.87 l -16.39,2.74 -0.03,0.12 z m 56.86,68.49 c 5.99,-0.75 11.74,-2.34 17.11,-4.64 l -12.29,-11.41 z m 18.78,-5.38 c 5.41,-2.5 10.43,-5.74 14.91,-9.59 l -15.13,-7.18 z m 16.29,-10.8 0.44,-0.4 c 4.19,-3.88 7.87,-8.32 10.92,-13.2 l -16.59,-2.31 z m 12.31,-15.17 c 2.95,-5.05 5.24,-10.54 6.74,-16.37 l -16.49,2.76 z M 62.63,136.99 c 1.03,5.93 2.89,11.59 5.44,16.85 l 10.78,-12.81 z m 6.27,18.49 c 2.65,5.11 5.98,9.81 9.86,14.01 l 0.4,0.43 6.45,-15.46 z m 11.54,15.76 c 4.17,4.18 8.92,7.8 14.13,10.72 l 1.51,-16.7 z m 15.73,11.58 c 5.18,2.72 10.79,4.75 16.7,5.97 l -3.56,-16.38 z m 37,6.41 -0.1,0.01 -8.24,-14.46 c 4.52,0.1 8.93,-0.41 13.13,-1.47 z m 18.62,-5.06 -12.19,-11.31 c 1.12,-0.32 2.21,-0.68 3.29,-1.08 3.08,-1.14 6.02,-2.58 8.78,-4.28 l 0.21,16.63 z m 16.32,-10.46 -15.01,-7.13 c 2.15,-1.44 4.18,-3.04 6.07,-4.79 l 0.02,-0.02 c 1.34,-1.24 2.61,-2.55 3.81,-3.94 l 5.19,15.8 z m 12.44,-14.87 -16.47,-2.3 c 2.51,-3.11 4.65,-6.55 6.35,-10.24 l 0.48,-1.08 9.7,13.53 z m 7.39,-17.91 -16.39,2.75 c 1.58,-4.06 2.65,-8.37 3.1,-12.88 l 13.32,10.01 z m -82.46,29.39 c 1.04,0.48 2.11,0.93 3.19,1.34 l -13.03,10.32 -0.08,-0.04 1.5,-16.57 c 2.62,1.91 5.44,3.58 8.42,4.95 z m 4.8,1.91 c 4.07,1.37 8.39,2.23 12.87,2.48 l -9.34,13.76 z M 90.01,159.08 c 1.76,1.9 3.66,3.66 5.7,5.26 l -15.52,5.94 -0.08,-0.08 6.41,-15.35 c 1.08,1.48 2.25,2.89 3.49,4.23 z m -10,-16.3 c 1.4,3.81 3.27,7.4 5.53,10.7 l -16.6,1.01 -0.04,-0.1 10.71,-12.73 z M 77,126.99 c 0.11,4.53 0.83,8.92 2.1,13.08 l -16.13,-4.01 -0.02,-0.12 z"
   id="path1-8" /> <path
   fill="#ffffff"
   d="m 171.3,175.13 34.79,0.05 c 4.48,0 8.05,3.74 8.05,8.21 v 0.01 c 0,4.47 -3.77,8.1 -8.26,8.1 l -66,-0.1 c 11.97,-2.54 22.76,-8.27 31.42,-16.27 z m 21.48,-46.48 24.64,-24.56 c 3.17,-3.17 8.34,-3.05 11.5,0.11 v 0 c 3.17,3.17 3.06,8.41 -0.11,11.57 l -46.74,46.61 c 6.67,-10.26 10.24,-21.94 10.71,-33.73 z M 175.11,80.6 175.16,45.81 c 0,-4.48 3.74,-8.05 8.21,-8.05 h 0.01 c 4.47,0 8.1,3.78 8.1,8.26 l -0.1,66 C 188.84,100.05 183.11,89.27 175.11,80.6 Z M 128.63,59.12 104.07,34.48 c -3.17,-3.17 -3.05,-8.33 0.11,-11.5 h 0.01 c 3.16,-3.17 8.4,-3.06 11.57,0.12 l 46.6,46.73 C 152.1,63.16 140.42,59.59 128.63,59.12 Z M 80.58,76.79 45.79,76.75 C 41.31,76.74 37.74,73 37.74,68.53 v 0 c 0,-4.48 3.78,-8.11 8.26,-8.1 l 66,0.09 C 100.03,63.06 89.25,68.8 80.58,76.79 Z M 59.1,123.27 34.47,147.83 c -3.18,3.17 -8.34,3.05 -11.51,-0.11 v 0 c -3.17,-3.17 -3.06,-8.4 0.12,-11.57 L 69.81,89.54 C 63.14,99.8 59.57,111.48 59.1,123.27 Z m 17.67,48.05 -0.04,34.79 c -0.01,4.48 -3.74,8.05 -8.22,8.05 v 0 c -4.48,0 -8.1,-3.77 -8.1,-8.26 l 0.09,-66 c 2.54,11.97 8.28,22.76 16.27,31.42 z m 46.48,21.48 24.56,24.64 c 3.17,3.17 3.05,8.34 -0.11,11.5 v 0 c -3.17,3.17 -8.4,3.06 -11.57,-0.11 l -46.6,-46.74 c 10.25,6.67 21.93,10.24 33.72,10.71 z"
   id="path2-0" /> </g><g
     id="g21"> <path
   fill="#ffffff"
   fill-rule="nonzero"
   d="m 520.23,156.36 c 2.6,0 4.64,0.62 6.11,1.86 1.47,1.24 2.21,2.94 2.21,5.11 0,2.17 -0.74,3.88 -2.21,5.11 -1.47,1.23 -3.51,1.84 -6.11,1.84 h -5.46 v 6.43 h -2.15 v -20.35 z m -0.05,12.03 c 2.01,0 3.55,-0.44 4.62,-1.32 1.06,-0.88 1.6,-2.13 1.6,-3.74 0,-1.64 -0.54,-2.91 -1.6,-3.79 -1.07,-0.88 -2.61,-1.32 -4.62,-1.32 h -5.41 v 10.17 z m 26.02,6.46 v 1.86 h -14.39 v -20.35 h 13.96 v 1.86 h -11.81 v 7.24 h 10.53 v 1.83 h -10.53 v 7.56 z m 9.29,2.03 c -1.52,0 -2.97,-0.24 -4.35,-0.73 -1.39,-0.48 -2.46,-1.12 -3.21,-1.91 l 0.84,-1.66 c 0.74,0.74 1.71,1.33 2.94,1.79 1.22,0.45 2.48,0.68 3.78,0.68 1.82,0 3.18,-0.33 4.09,-1 0.91,-0.67 1.37,-1.54 1.37,-2.6 0,-0.82 -0.25,-1.47 -0.74,-1.95 -0.5,-0.49 -1.1,-0.86 -1.82,-1.12 -0.72,-0.26 -1.71,-0.55 -2.99,-0.86 -1.53,-0.39 -2.75,-0.76 -3.66,-1.12 -0.92,-0.36 -1.7,-0.9 -2.35,-1.64 -0.65,-0.74 -0.97,-1.74 -0.97,-2.99 0,-1.03 0.27,-1.97 0.81,-2.81 0.55,-0.84 1.38,-1.52 2.51,-2.02 1.12,-0.5 2.51,-0.76 4.18,-0.76 1.16,0 2.3,0.16 3.42,0.48 1.11,0.32 2.08,0.76 2.89,1.33 l -0.73,1.71 c -0.85,-0.56 -1.76,-0.98 -2.73,-1.26 -0.97,-0.29 -1.92,-0.43 -2.85,-0.43 -1.78,0 -3.13,0.35 -4.02,1.04 -0.91,0.68 -1.36,1.57 -1.36,2.66 0,0.81 0.25,1.46 0.74,1.96 0.5,0.49 1.12,0.87 1.86,1.13 0.75,0.26 1.75,0.55 3.01,0.86 1.5,0.37 2.7,0.73 3.62,1.09 0.92,0.36 1.7,0.9 2.34,1.63 0.64,0.72 0.96,1.71 0.96,2.95 0,1.03 -0.27,1.96 -0.83,2.8 -0.55,0.85 -1.4,1.52 -2.54,2.01 -1.14,0.5 -2.55,0.74 -4.21,0.74 z m 31.37,1.54 c -0.62,0.76 -1.35,1.34 -2.2,1.73 -0.84,0.4 -1.75,0.6 -2.74,0.6 -1.2,0 -2.34,-0.3 -3.42,-0.89 -1.07,-0.59 -2.28,-1.58 -3.62,-2.98 -1.95,-0.06 -3.72,-0.54 -5.29,-1.45 -1.57,-0.91 -2.8,-2.14 -3.69,-3.69 -0.89,-1.55 -1.34,-3.29 -1.34,-5.21 0,-1.95 0.46,-3.72 1.38,-5.29 0.92,-1.57 2.2,-2.8 3.84,-3.7 1.64,-0.91 3.46,-1.36 5.48,-1.36 2.01,0 3.83,0.45 5.45,1.34 1.62,0.89 2.89,2.13 3.82,3.71 0.94,1.58 1.4,3.35 1.4,5.3 0,1.71 -0.35,3.27 -1.06,4.7 -0.71,1.42 -1.7,2.61 -2.97,3.56 -1.27,0.95 -2.72,1.58 -4.37,1.89 1.49,1.57 2.96,2.35 4.42,2.35 1.51,0 2.8,-0.62 3.86,-1.86 z m -20.18,-11.89 c 0,1.59 0.38,3.02 1.12,4.3 0.75,1.29 1.78,2.29 3.09,3.03 1.3,0.74 2.76,1.1 4.37,1.1 1.61,0 3.06,-0.36 4.36,-1.1 1.3,-0.74 2.32,-1.74 3.05,-3.03 0.74,-1.28 1.11,-2.71 1.11,-4.3 0,-1.59 -0.37,-3.02 -1.11,-4.3 -0.73,-1.28 -1.75,-2.29 -3.05,-3.02 -1.3,-0.74 -2.75,-1.11 -4.36,-1.11 -1.61,0 -3.07,0.37 -4.37,1.11 -1.31,0.73 -2.34,1.74 -3.09,3.02 -0.74,1.28 -1.12,2.71 -1.12,4.3 z m 30.88,10.35 c -2.63,0 -4.68,-0.75 -6.16,-2.27 -1.47,-1.51 -2.21,-3.71 -2.21,-6.59 v -11.66 h 2.15 v 11.57 c 0,2.36 0.54,4.13 1.6,5.29 1.07,1.16 2.61,1.74 4.62,1.74 2.04,0 3.59,-0.58 4.66,-1.74 1.06,-1.16 1.6,-2.93 1.6,-5.29 v -11.57 h 2.09 v 11.66 c 0,2.88 -0.73,5.08 -2.2,6.59 -1.46,1.52 -3.51,2.27 -6.15,2.27 z M 611,156.36 h 2.16 v 20.35 H 611 Z m 13.01,20.52 c -1.51,0 -2.96,-0.24 -4.35,-0.73 -1.38,-0.48 -2.46,-1.12 -3.21,-1.91 l 0.84,-1.66 c 0.74,0.74 1.72,1.33 2.94,1.79 1.22,0.45 2.48,0.68 3.78,0.68 1.82,0 3.19,-0.33 4.1,-1 0.91,-0.67 1.36,-1.54 1.36,-2.6 0,-0.82 -0.24,-1.47 -0.74,-1.95 -0.49,-0.49 -1.1,-0.86 -1.82,-1.12 -0.71,-0.26 -1.71,-0.55 -2.99,-0.86 -1.53,-0.39 -2.75,-0.76 -3.66,-1.12 -0.91,-0.36 -1.7,-0.9 -2.34,-1.64 -0.65,-0.74 -0.98,-1.74 -0.98,-2.99 0,-1.03 0.27,-1.97 0.82,-2.81 0.54,-0.84 1.37,-1.52 2.5,-2.02 1.12,-0.5 2.52,-0.76 4.18,-0.76 1.17,0 2.31,0.16 3.42,0.48 1.11,0.32 2.08,0.76 2.89,1.33 l -0.73,1.71 c -0.85,-0.56 -1.76,-0.98 -2.73,-1.26 -0.97,-0.29 -1.92,-0.43 -2.85,-0.43 -1.78,0 -3.12,0.35 -4.02,1.04 -0.9,0.68 -1.36,1.57 -1.36,2.66 0,0.81 0.25,1.46 0.75,1.96 0.49,0.49 1.11,0.87 1.86,1.13 0.74,0.26 1.75,0.55 3.01,0.86 1.49,0.37 2.69,0.73 3.61,1.09 0.93,0.36 1.7,0.9 2.35,1.63 0.64,0.72 0.95,1.71 0.95,2.95 0,1.03 -0.27,1.96 -0.82,2.8 -0.56,0.85 -1.4,1.52 -2.55,2.01 -1.14,0.5 -2.55,0.74 -4.21,0.74 z m 23.64,-5.61 h -11.34 l -2.44,5.44 h -2.24 l 9.3,-20.35 h 2.13 l 9.3,20.35 h -2.27 z m -0.78,-1.74 -4.89,-10.93 -4.88,10.93 z"
   id="path11-4" /> <g
   id="g20"> <path
   fill="#ffffff"
   fill-rule="nonzero"
   d="m 273.35,156.35 h -7.67 v 20.41 h 2.33 v -6.47 h 5.34 c 5.05,0 7.96,-2.6 7.96,-7.09 0,-4.34 -2.91,-6.85 -7.96,-6.85 z m -0.09,11.78 h -5.25 v -9.62 h 5.25 c 3.68,0 5.81,1.63 5.81,4.75 0,3.21 -2.13,4.87 -5.81,4.87 z"
   id="path12-2" /> <path
   fill="#ffffff"
   fill-rule="nonzero"
   d="m 299.51,176.76 -4.81,-6.97 c 2.94,-0.93 4.6,-3.23 4.6,-6.59 0,-4.34 -2.94,-6.85 -8.05,-6.85 h -7.75 v 20.41 h 2.33 v -6.47 h 5.42 c 0.47,0 0.91,-0.03 1.32,-0.06 l 4.28,6.53 z m -13.68,-8.63 v -9.62 h 5.42 c 3.71,0 5.81,1.63 5.81,4.75 0,3.21 -2.1,4.87 -5.81,4.87 z"
   id="path13-2" /> <path
   fill="#ffffff"
   fill-rule="nonzero"
   d="m 313.53,149.82 -3.5,3.94 h 2.19 l 3.62,-2.89 z m -1.86,6.47 c -5.98,0 -10.7,4.52 -10.7,10.27 0,5.74 4.72,10.29 10.7,10.29 5.95,0 10.67,-4.55 10.67,-10.29 0,-5.75 -4.72,-10.27 -10.67,-10.27 z m 0,2.16 c 4.55,0 8.28,3.59 8.28,8.11 0,4.52 -3.73,8.16 -8.28,8.16 -4.55,0 -8.34,-3.64 -8.34,-8.16 0,-4.52 3.79,-8.11 8.34,-8.11 z"
   id="path14-2" /> <polygon
   fill="#ffffff"
   fill-rule="nonzero"
   points="323.68,168.77 330.53,168.77 330.53,167.11 323.68,167.11 "
   id="polygon14" /> <path
   fill="#ffffff"
   fill-rule="nonzero"
   d="m 349.84,176.76 -4.82,-6.97 c 2.95,-0.93 4.61,-3.23 4.61,-6.59 0,-4.34 -2.95,-6.85 -8.05,-6.85 h -7.76 v 20.41 h 2.34 v -6.47 h 5.42 c 0.47,0 0.91,-0.03 1.31,-0.06 l 4.29,6.53 z m -13.68,-8.63 v -9.62 h 5.42 c 3.71,0 5.81,1.63 5.81,4.75 0,3.21 -2.1,4.87 -5.81,4.87 z"
   id="path15-0" /> <polygon
   fill="#ffffff"
   fill-rule="nonzero"
   points="355.55,158.51 367.07,158.51 367.07,156.35 353.21,156.35 353.21,176.76 367.45,176.76 367.45,174.6 355.55,174.6 355.55,167.49 365.84,167.49 365.84,165.36 355.55,165.36 "
   id="polygon15" /> <polygon
   fill="#ffffff"
   fill-rule="nonzero"
   points="370.5,176.76 372.84,176.76 372.84,156.35 370.5,156.35 "
   id="polygon16" /> <polygon
   fill="#ffffff"
   fill-rule="nonzero"
   points="374.56,158.51 381.2,158.51 381.2,176.76 383.54,176.76 383.54,158.51 390.21,158.51 390.21,156.35 374.56,156.35 "
   id="polygon17" /> <path
   fill="#ffffff"
   fill-rule="nonzero"
   d="m 399.37,156.29 c -5.98,0 -10.7,4.52 -10.7,10.27 0,5.74 4.72,10.29 10.7,10.29 5.95,0 10.67,-4.55 10.67,-10.29 0,-5.75 -4.72,-10.27 -10.67,-10.27 z m 0,2.16 c 4.55,0 8.28,3.59 8.28,8.11 0,4.52 -3.73,8.16 -8.28,8.16 -4.55,0 -8.34,-3.64 -8.34,-8.16 0,-4.52 3.79,-8.11 8.34,-8.11 z"
   id="path17-5" /> <path
   fill="#ffffff"
   fill-rule="nonzero"
   d="m 428.62,176.76 -4.81,-6.97 c 2.94,-0.93 4.6,-3.23 4.6,-6.59 0,-4.34 -2.94,-6.85 -8.05,-6.85 h -7.75 v 20.41 h 2.33 v -6.47 h 5.42 c 0.47,0 0.91,-0.03 1.32,-0.06 l 4.28,6.53 z m -13.68,-8.63 v -9.62 h 5.42 c 3.71,0 5.81,1.63 5.81,4.75 0,3.21 -2.1,4.87 -5.81,4.87 z"
   id="path18-5" /> <polygon
   fill="#ffffff"
   fill-rule="nonzero"
   points="432,176.76 434.33,176.76 434.33,156.35 432,156.35 "
   id="polygon18" /> <path
   fill="#ffffff"
   fill-rule="nonzero"
   d="m 454.01,176.76 h 2.54 l -9.13,-20.41 H 445 l -9.16,20.41 h 2.48 l 2.28,-5.22 h 11.1 z m -12.45,-7.37 4.58,-10.5 4.63,10.5 z"
   id="path19-2" /> <path
   fill="#ffffff"
   fill-rule="nonzero"
   d="m 475.06,156.35 h -8.25 v 20.41 h 8.17 c 6,0 10.58,-4.4 10.58,-10.2 0,-5.81 -4.55,-10.21 -10.5,-10.21 z m 0.03,18.25 h -5.95 V 158.51 H 475 c 4.59,0 8.2,3.47 8.2,8.08 0,4.57 -3.56,8.01 -8.11,8.01 z"
   id="path20-9" /> <polygon
   fill="#ffffff"
   fill-rule="nonzero"
   points="490.46,158.51 501.98,158.51 501.98,156.35 488.13,156.35 488.13,176.76 502.36,176.76 502.36,174.6 490.46,174.6 490.46,167.49 500.75,167.49 500.75,165.36 490.46,165.36 "
   id="polygon20" /> </g> <path
   fill="#ffffff"
   fill-rule="nonzero"
   d="m 280.05,210.53 v 1.86 h -14.37 v -20.32 h 13.94 v 1.86 h -11.79 v 7.23 h 10.51 v 1.83 h -10.51 v 7.54 z m 18.88,-18.46 c 2.59,0 4.62,0.62 6.09,1.86 1.47,1.24 2.21,2.94 2.21,5.11 0,2.17 -0.74,3.86 -2.21,5.09 -1.47,1.23 -3.5,1.85 -6.09,1.85 h -5.46 v 6.41 h -2.15 v -20.32 z m -0.06,12.02 c 2.01,0 3.55,-0.44 4.61,-1.32 1.07,-0.88 1.6,-2.12 1.6,-3.73 0,-1.65 -0.53,-2.91 -1.6,-3.79 -1.06,-0.88 -2.6,-1.32 -4.61,-1.32 h -5.4 v 10.16 z m 20.79,8.48 c -2.01,0 -3.84,-0.45 -5.47,-1.35 -1.64,-0.9 -2.91,-2.14 -3.83,-3.71 -0.92,-1.56 -1.38,-3.32 -1.38,-5.28 0,-1.95 0.46,-3.71 1.38,-5.28 0.92,-1.57 2.19,-2.8 3.83,-3.7 1.63,-0.9 3.46,-1.35 5.47,-1.35 2.01,0 3.83,0.44 5.44,1.33 1.62,0.89 2.89,2.13 3.82,3.71 0.93,1.57 1.39,3.34 1.39,5.29 0,1.96 -0.46,3.72 -1.39,5.3 -0.93,1.58 -2.2,2.81 -3.82,3.7 -1.61,0.89 -3.43,1.34 -5.44,1.34 z m 0,-1.92 c 1.61,0 3.06,-0.36 4.35,-1.09 1.3,-0.72 2.32,-1.73 3.05,-3.02 0.74,-1.28 1.11,-2.72 1.11,-4.31 0,-1.58 -0.37,-3.02 -1.11,-4.31 -0.73,-1.29 -1.75,-2.29 -3.05,-3.02 -1.29,-0.72 -2.74,-1.09 -4.35,-1.09 -1.6,0 -3.06,0.37 -4.37,1.09 -1.3,0.73 -2.33,1.73 -3.07,3.02 -0.75,1.29 -1.12,2.73 -1.12,4.31 0,1.59 0.37,3.03 1.12,4.31 0.74,1.29 1.77,2.3 3.07,3.02 1.31,0.73 2.77,1.09 4.37,1.09 z m 2.09,-23.83 h 2.76 l -4.7,3.6 h -2.04 z m 17.6,25.75 c -1.51,0 -2.96,-0.25 -4.34,-0.73 -1.38,-0.48 -2.45,-1.12 -3.21,-1.91 l 0.84,-1.66 c 0.74,0.74 1.72,1.33 2.94,1.78 1.22,0.46 2.47,0.69 3.77,0.69 1.82,0 3.18,-0.34 4.09,-1 0.91,-0.67 1.37,-1.54 1.37,-2.6 0,-0.81 -0.25,-1.46 -0.74,-1.95 -0.5,-0.48 -1.1,-0.85 -1.82,-1.11 -0.71,-0.27 -1.71,-0.55 -2.99,-0.86 -1.53,-0.39 -2.74,-0.76 -3.65,-1.12 -0.91,-0.36 -1.69,-0.9 -2.34,-1.64 -0.65,-0.73 -0.97,-1.73 -0.97,-2.99 0,-1.02 0.27,-1.96 0.81,-2.8 0.54,-0.84 1.37,-1.51 2.5,-2.02 1.12,-0.5 2.51,-0.75 4.18,-0.75 1.16,0 2.29,0.16 3.41,0.48 1.11,0.32 2.07,0.76 2.88,1.32 l -0.72,1.71 c -0.85,-0.56 -1.76,-0.98 -2.73,-1.26 -0.97,-0.28 -1.92,-0.42 -2.84,-0.42 -1.79,0 -3.13,0.34 -4.02,1.03 -0.91,0.68 -1.36,1.57 -1.36,2.65 0,0.82 0.25,1.47 0.75,1.96 0.49,0.5 1.11,0.87 1.85,1.14 0.75,0.26 1.75,0.54 3.01,0.85 1.49,0.37 2.69,0.73 3.61,1.09 0.92,0.36 1.7,0.9 2.34,1.63 0.64,0.72 0.96,1.7 0.96,2.94 0,1.03 -0.28,1.96 -0.83,2.8 -0.55,0.85 -1.4,1.51 -2.54,2.01 -1.14,0.49 -2.55,0.74 -4.21,0.74 z m 9.82,-8.94 h 7.6 v 1.8 h -7.6 z m 25.81,-1.4 h 2.06 v 7.75 c -0.95,0.83 -2.07,1.47 -3.37,1.92 -1.29,0.44 -2.66,0.67 -4.09,0.67 -2.03,0 -3.86,-0.45 -5.48,-1.34 -1.63,-0.89 -2.91,-2.12 -3.83,-3.7 -0.93,-1.58 -1.4,-3.34 -1.4,-5.3 0,-1.95 0.47,-3.72 1.4,-5.29 0.92,-1.58 2.2,-2.82 3.83,-3.71 1.62,-0.89 3.46,-1.33 5.51,-1.33 1.55,0 2.97,0.25 4.27,0.74 1.3,0.49 2.39,1.22 3.28,2.19 l -1.34,1.36 c -1.6,-1.58 -3.64,-2.38 -6.12,-2.38 -1.64,0 -3.13,0.37 -4.46,1.09 -1.32,0.73 -2.36,1.73 -3.12,3.02 -0.75,1.29 -1.13,2.73 -1.13,4.31 0,1.59 0.38,3.02 1.13,4.3 0.76,1.28 1.79,2.28 3.11,3.02 1.32,0.73 2.8,1.1 4.44,1.1 2.09,0 3.86,-0.52 5.31,-1.57 z m 20.62,10.16 -4.64,-6.53 c -0.53,0.06 -1.07,0.09 -1.63,0.09 h -5.46 v 6.44 h -2.14 v -20.32 h 7.6 c 2.59,0 4.63,0.62 6.1,1.86 1.47,1.24 2.2,2.94 2.2,5.11 0,1.59 -0.4,2.93 -1.2,4.02 -0.8,1.09 -1.95,1.88 -3.44,2.37 l 4.96,6.96 z m -6.33,-8.27 c 2.01,0 3.55,-0.45 4.62,-1.33 1.06,-0.9 1.59,-2.14 1.59,-3.75 0,-1.65 -0.53,-2.91 -1.59,-3.79 -1.07,-0.88 -2.61,-1.32 -4.62,-1.32 h -5.4 v 10.19 z m 24.8,2.84 h -11.32 l -2.44,5.43 h -2.23 l 9.28,-20.32 h 2.12 l 9.29,20.32 h -2.26 z m -0.78,-1.74 -4.88,-10.91 -4.88,10.91 z m 7.46,-13.15 h 8.28 c 2.15,0 4.04,0.43 5.69,1.29 1.64,0.87 2.92,2.07 3.83,3.6 0.91,1.54 1.36,3.3 1.36,5.27 0,1.98 -0.45,3.73 -1.36,5.27 -0.91,1.54 -2.19,2.74 -3.83,3.6 -1.65,0.86 -3.54,1.29 -5.69,1.29 h -8.28 z m 8.16,18.46 c 1.78,0 3.34,-0.35 4.68,-1.05 1.33,-0.71 2.37,-1.69 3.1,-2.94 0.74,-1.24 1.11,-2.68 1.11,-4.31 0,-1.62 -0.37,-3.06 -1.11,-4.31 -0.73,-1.25 -1.77,-2.22 -3.1,-2.93 -1.34,-0.71 -2.9,-1.06 -4.68,-1.06 h -6.01 v 16.6 z m 22.62,2.04 c -2.63,0 -4.68,-0.76 -6.15,-2.27 -1.47,-1.51 -2.21,-3.7 -2.21,-6.59 v -11.64 h 2.15 v 11.56 c 0,2.36 0.53,4.12 1.6,5.28 1.06,1.16 2.6,1.74 4.61,1.74 2.03,0 3.58,-0.58 4.65,-1.74 1.06,-1.16 1.59,-2.92 1.59,-5.28 v -11.56 h 2.09 v 11.64 c 0,2.89 -0.73,5.08 -2.19,6.59 -1.46,1.51 -3.51,2.27 -6.14,2.27 z m 25.73,-5.61 h -11.32 l -2.44,5.43 h -2.24 l 9.29,-20.32 h 2.12 l 9.29,20.32 h -2.26 z m -0.79,-1.74 -4.87,-10.91 -4.88,10.91 z m 16,7.35 c -2.01,0 -3.82,-0.45 -5.44,-1.34 -1.61,-0.89 -2.88,-2.12 -3.8,-3.7 -0.92,-1.58 -1.38,-3.34 -1.38,-5.3 0,-1.95 0.46,-3.72 1.38,-5.29 0.92,-1.58 2.19,-2.82 3.82,-3.71 1.62,-0.89 3.44,-1.33 5.45,-1.33 1.51,0 2.91,0.25 4.18,0.75 1.28,0.51 2.37,1.24 3.26,2.21 l -1.37,1.36 c -1.59,-1.6 -3.59,-2.41 -6.01,-2.41 -1.6,0 -3.06,0.37 -4.38,1.11 -1.32,0.73 -2.35,1.74 -3.09,3.02 -0.75,1.27 -1.12,2.71 -1.12,4.29 0,1.59 0.37,3.02 1.12,4.3 0.74,1.28 1.77,2.28 3.09,3.02 1.32,0.73 2.78,1.1 4.38,1.1 2.44,0 4.44,-0.81 6.01,-2.44 l 1.37,1.37 c -0.89,0.97 -1.98,1.7 -3.27,2.22 -1.29,0.51 -2.69,0.77 -4.2,0.77 z m -1.04,6.21 c -0.95,0 -1.76,-0.22 -2.44,-0.67 l 0.5,-1.1 c 0.56,0.37 1.19,0.55 1.91,0.55 0.58,0 1.03,-0.12 1.34,-0.35 0.31,-0.23 0.46,-0.57 0.46,-1.02 0,-0.4 -0.15,-0.73 -0.45,-0.97 -0.3,-0.24 -0.75,-0.36 -1.35,-0.36 h -0.67 l 0.7,-2.64 h 1.25 l -0.44,1.68 c 0.8,0.08 1.41,0.33 1.83,0.74 0.43,0.42 0.64,0.95 0.64,1.61 0,0.78 -0.3,1.39 -0.9,1.85 -0.6,0.45 -1.39,0.68 -2.38,0.68 z m 23.93,-11.82 h -11.32 l -2.44,5.43 h -2.24 l 9.29,-20.32 h 2.12 l 9.29,20.32 h -2.26 z m -0.79,-1.74 -4.87,-10.91 -4.88,10.91 z m -2.87,-14.98 c -0.44,0 -0.84,-0.1 -1.19,-0.3 -0.35,-0.2 -0.72,-0.49 -1.13,-0.86 -0.35,-0.29 -0.63,-0.5 -0.83,-0.62 -0.2,-0.13 -0.42,-0.19 -0.65,-0.19 -0.45,0 -0.81,0.17 -1.08,0.49 -0.27,0.33 -0.41,0.79 -0.43,1.37 h -1.25 c 0.04,-0.97 0.29,-1.74 0.75,-2.32 0.47,-0.59 1.09,-0.88 1.86,-0.88 0.45,0 0.84,0.1 1.18,0.29 0.34,0.2 0.73,0.49 1.17,0.88 0.31,0.27 0.57,0.47 0.79,0.6 0.21,0.14 0.43,0.21 0.66,0.21 0.43,0 0.78,-0.16 1.05,-0.48 0.27,-0.32 0.43,-0.76 0.46,-1.32 h 1.25 c -0.04,0.95 -0.29,1.71 -0.75,2.28 -0.47,0.57 -1.09,0.85 -1.86,0.85 z m 18.93,22.33 c -2.01,0 -3.83,-0.45 -5.47,-1.35 -1.63,-0.9 -2.91,-2.14 -3.83,-3.71 -0.92,-1.56 -1.38,-3.32 -1.38,-5.28 0,-1.95 0.46,-3.71 1.38,-5.28 0.92,-1.57 2.2,-2.8 3.83,-3.7 1.64,-0.9 3.46,-1.35 5.47,-1.35 2.01,0 3.83,0.44 5.45,1.33 1.61,0.89 2.88,2.13 3.81,3.71 0.93,1.57 1.4,3.34 1.4,5.29 0,1.96 -0.47,3.72 -1.4,5.3 -0.93,1.58 -2.2,2.81 -3.81,3.7 -1.62,0.89 -3.44,1.34 -5.45,1.34 z m 0,-1.92 c 1.61,0 3.06,-0.36 4.36,-1.09 1.29,-0.72 2.31,-1.73 3.05,-3.02 0.73,-1.28 1.1,-2.72 1.1,-4.31 0,-1.58 -0.37,-3.02 -1.1,-4.31 -0.74,-1.29 -1.76,-2.29 -3.05,-3.02 -1.3,-0.72 -2.75,-1.09 -4.36,-1.09 -1.6,0 -3.06,0.37 -4.37,1.09 -1.3,0.73 -2.33,1.73 -3.07,3.02 -0.75,1.29 -1.12,2.73 -1.12,4.31 0,1.59 0.37,3.03 1.12,4.31 0.74,1.29 1.77,2.3 3.07,3.02 1.31,0.73 2.77,1.09 4.37,1.09 z"
   id="path21-0" /> </g><g
     id="g27"> <path
   fill="#ffffff"
   fill-rule="nonzero"
   d="m 302.42,46.48 h -36.74 v 86.57 h 19.54 v -24.73 h 17.2 c 22.01,0 34.62,-11.63 34.62,-31.78 0,-19.17 -12.61,-30.06 -34.62,-30.06 z m -1,45.51 h -16.2 V 62.68 h 16.2 c 10.89,0 17.07,4.82 17.07,14.47 0,9.9 -6.18,14.84 -17.07,14.84 z"
   id="path22-2" /> <path
   fill="#ffffff"
   fill-rule="nonzero"
   d="m 549.47,46.48 h -36.73 v 86.57 h 19.54 v -24.73 h 17.19 c 22.02,0 34.63,-11.63 34.63,-31.78 0,-19.17 -12.61,-30.06 -34.63,-30.06 z m -0.99,45.51 h -16.2 V 62.68 h 16.2 c 10.89,0 17.07,4.82 17.07,14.47 0,9.9 -6.18,14.84 -17.07,14.84 z"
   id="path23-8" /> <path
   fill="#ffffff"
   fill-rule="nonzero"
   d="m 772.28,46.48 h -36.74 v 86.57 h 19.54 v -24.73 h 17.2 c 22.01,0 34.62,-11.63 34.62,-31.78 0,-19.17 -12.61,-30.06 -34.62,-30.06 z m -1,45.51 h -16.2 V 62.68 h 16.2 c 10.89,0 17.07,4.82 17.07,14.47 0,9.9 -6.18,14.84 -17.07,14.84 z"
   id="path24-3" /> <path
   fill="#ffffff"
   fill-rule="nonzero"
   d="m 416.81,133.05 -18.43,-28.57 c 10.51,-4.94 16.2,-14.59 16.2,-27.94 0,-19.17 -12.86,-30.06 -35.49,-30.06 h -37.6 v 86.57 h 19.54 v -24.73 h 18.06 1.85 l 13.73,24.73 z M 361.03,62.68 h 18.06 c 10.76,0 16.94,4.82 16.94,14.47 0,9.9 -6.18,14.84 -16.94,14.84 h -18.06 z"
   id="path25-8" /> <path
   fill="#ffffff"
   fill-rule="nonzero"
   d="m 463.31,45.86 c -26.47,0 -46.5,18.68 -46.5,43.91 0,25.1 20.03,44.15 46.5,44.15 26.46,0 46.5,-19.17 46.5,-44.15 0,-25.11 -20.04,-43.91 -46.5,-43.91 z m 0.24,17.07 c 14.47,0 26.22,11.63 26.22,26.84 0,15.21 -11.75,27.08 -26.22,27.08 -14.46,0 -26.71,-11.87 -26.71,-27.08 0,-15.21 12.12,-26.84 26.71,-26.84 z"
   id="path26-0" /> <path
   fill="#ffffff"
   fill-rule="nonzero"
   d="m 656.61,115.07 v 15.45 H 592.16 V 47.29 h 62.9 v 15.46 h -43.75 v 18.07 h 38.64 V 95.8 h -38.64 v 19.27 z m 36.55,16.88 c -6.58,0 -12.94,-0.89 -19.08,-2.67 -6.15,-1.79 -11.08,-4.11 -14.8,-6.96 l 6.54,-14.5 c 3.56,2.61 7.8,4.71 12.72,6.3 4.91,1.58 9.83,2.37 14.74,2.37 5.47,0 9.51,-0.81 12.13,-2.43 2.61,-1.63 3.92,-3.79 3.92,-6.48 0,-1.99 -0.77,-3.63 -2.32,-4.94 -1.54,-1.31 -3.52,-2.36 -5.94,-3.15 -2.42,-0.79 -5.69,-1.66 -9.81,-2.61 -6.34,-1.51 -11.53,-3.02 -15.58,-4.52 -4.04,-1.51 -7.51,-3.93 -10.4,-7.26 -2.89,-3.33 -4.34,-7.77 -4.34,-13.31 0,-4.84 1.31,-9.22 3.92,-13.14 2.62,-3.93 6.56,-7.04 11.83,-9.34 5.28,-2.3 11.72,-3.44 19.33,-3.44 5.31,0 10.5,0.63 15.57,1.9 5.07,1.27 9.52,3.09 13.32,5.47 l -5.95,14.62 c -7.69,-4.36 -15.37,-6.54 -23.06,-6.54 -5.39,0 -9.38,0.87 -11.95,2.62 -2.58,1.74 -3.87,4.04 -3.87,6.89 0,2.86 1.49,4.98 4.46,6.36 2.97,1.39 7.51,2.76 13.62,4.11 6.34,1.5 11.53,3.01 15.57,4.52 4.05,1.5 7.51,3.88 10.41,7.13 2.89,3.25 4.34,7.65 4.34,13.2 0,4.76 -1.33,9.1 -3.99,13.02 -2.65,3.92 -6.63,7.03 -11.95,9.33 -5.31,2.3 -11.77,3.45 -19.38,3.45 z"
   id="path27-4" /> </g></g> </g></g></g></svg>
